<?xml version="1.0" encoding="iso-8859-1"?><!-- Generator: Adobe Illustrator 19.2.1, SVG Export Plug-In . SVG Version: 6.00 Build 0)  --><svg xmlns="http://www.w3.org/2000/svg" xmlns:xlink="http://www.w3.org/1999/xlink" version="1.1" x="0px" y="0px" viewBox="0 0 48 48" style="enable-background:new 0 0 48 48;" xml:space="preserve" width="48" height="48">
<path style="fill:#039BE5;" d="M36.706,6H24H11.294C8.37,6,6,8.37,6,11.294V24v12.706C6,39.63,8.37,42,11.294,42H24h12.706  C39.63,42,42,39.63,42,36.706V24V11.294C42,8.37,39.63,6,36.706,6z"/>
<path style="fill:#0288D1;" d="M6,24v12.706C6,39.63,8.37,42,11.294,42H24h12.706C39.63,42,42,39.63,42,36.706V24H6z"/>
<rect x="29.295" y="16.059" style="fill:#FFFFFF;" width="3.706" height="10.589"/>
<path style="fill:#FFFFFF;" d="M25.863,24.561c-0.627-0.701-1.499-1.095-2.618-1.18c0.995-0.271,1.718-0.668,2.175-1.198  c0.455-0.523,0.681-1.233,0.681-2.127c0-0.707-0.155-1.333-0.454-1.874c-0.307-0.537-0.749-0.967-1.329-1.29  c-0.508-0.279-1.111-0.476-1.814-0.592c-0.707-0.113-1.943-0.169-3.718-0.169h-4.315v15.737h4.446c1.786,0,3.074-0.063,3.862-0.182  c0.787-0.124,1.447-0.332,1.981-0.617c0.661-0.349,1.165-0.845,1.517-1.483c0.354-0.64,0.53-1.378,0.53-2.221  C26.807,26.198,26.492,25.26,25.863,24.561z M18.455,19.62h0.921c1.065,0,1.78,0.12,2.149,0.359c0.364,0.24,0.55,0.655,0.55,1.247  c0,0.569-0.198,0.969-0.589,1.204c-0.396,0.231-1.118,0.347-2.175,0.347h-0.856L18.455,19.62L18.455,19.62z M22.109,28.645  c-0.419,0.257-1.141,0.384-2.154,0.384h-1.499V25.59h1.564c1.041,0,1.76,0.131,2.143,0.392c0.389,0.262,0.58,0.724,0.58,1.387  C22.741,27.963,22.532,28.389,22.109,28.645z"/>
<path style="fill:#E3F2FD;" d="M31.148,27.706c-1.17,0-2.118,0.947-2.118,2.117s0.948,2.118,2.118,2.118  c1.169,0,2.117-0.948,2.117-2.118C33.265,28.653,32.317,27.706,31.148,27.706z"/>
<path style="fill:#E3F2FD;" d="M25.187,24H14.471v7.869h4.446c1.786,0,3.074-0.063,3.862-0.182c0.787-0.124,1.447-0.332,1.981-0.617  c0.661-0.349,1.165-0.845,1.517-1.483c0.354-0.64,0.53-1.378,0.53-2.221c0-1.167-0.314-2.105-0.944-2.804  C25.665,24.34,25.434,24.16,25.187,24z M22.109,28.645c-0.419,0.257-1.141,0.384-2.154,0.384h-1.499V25.59h1.564  c1.041,0,1.76,0.131,2.143,0.392c0.389,0.262,0.58,0.724,0.58,1.387C22.741,27.963,22.532,28.389,22.109,28.645z"/>
<rect x="29.295" y="24" style="fill:#E3F2FD;" width="3.706" height="2.647"/>
</svg>